HIERARCHY
ROOT Hips
{
	OFFSET 0.000000 0.000000 0.000000
	CHANNELS 6 Xposition Yposition Zposition Zrotation Yrotation Xrotation 
	JOINT LHipJoint
	{
		OFFSET 0.000000 0.000000 0.000000
		CHANNELS 3 Zrotation Yrotation Xrotation
		JOINT LeftUpLeg
		{
			OFFSET 1.363060 -1.794630 0.839290
			CHANNELS 3 Zrotation Yrotation Xrotation
			JOINT LeftLeg
			{
				OFFSET 2.448110 -6.726130 0.000000
				CHANNELS 3 Zrotation Yrotation Xrotation
				JOINT LeftFoot
				{
					OFFSET 2.562200 -7.039590 0.000000
					CHANNELS 3 Zrotation Yrotation Xrotation
					JOINT LeftToeBase
					{
						OFFSET 0.157640 -0.433110 2.322550
						CHANNELS 3 Zrotation Yrotation Xrotation
						End Site
						{
							OFFSET 0.000000 0.000000 0.000000
						}
					}
				}
			}
		}
	}
	JOINT RHipJoint
	{
		OFFSET 0.000000 0.000000 0.000000
		CHANNELS 3 Zrotation Yrotation Xrotation
		JOINT RightUpLeg
		{
			OFFSET -1.305520 -1.794630 0.839290
			CHANNELS 3 Zrotation Yrotation Xrotation
			JOINT RightLeg
			{
				OFFSET -2.542530 -6.985550 0.000000
				CHANNELS 3 Zrotation Yrotation Xrotation
				JOINT RightFoot
				{
					OFFSET -2.568260 -7.056230 0.000000
					CHANNELS 3 Zrotation Yrotation Xrotation
					JOINT RightToeBase
					{
						OFFSET -0.164730 -0.452590 2.363150
						CHANNELS 3 Zrotation Yrotation Xrotation
						End Site
						{
							OFFSET 0.000000 0.000000 0.000000
						}
					}
				}
			}
		}
	}
	JOINT LowerBack
	{
		OFFSET 0.000000 0.000000 0.000000
		CHANNELS 3 Zrotation Yrotation Xrotation
		JOINT Spine
		{
			OFFSET 0.028270 2.035590 -0.193380
			CHANNELS 3 Zrotation Yrotation Xrotation
			JOINT Spine1
			{
				OFFSET 0.056720 2.048850 -0.042750
				CHANNELS 3 Zrotation Yrotation Xrotation
				JOINT Neck
				{
					OFFSET 0.000000 0.000000 0.000000
					CHANNELS 3 Zrotation Yrotation Xrotation
					JOINT Neck1
					{
						OFFSET -0.054170 1.746240 0.172020
						CHANNELS 3 Zrotation Yrotation Xrotation
						JOINT Head
						{
							OFFSET 0.104070 1.761360 -0.123970
							CHANNELS 3 Zrotation Yrotation Xrotation
							End Site
							{
								OFFSET 0.000000 0.000000 0.000000
							}
						}
					}
				}
				JOINT LeftShoulder
				{
					OFFSET 0.000000 0.000000 0.000000
					CHANNELS 3 Zrotation Yrotation Xrotation
					JOINT LeftArm
					{
						OFFSET 3.362410 1.200890 -0.311210
						CHANNELS 3 Zrotation Yrotation Xrotation
						JOINT LeftForeArm
						{
							OFFSET 4.983000 -0.000000 -0.000000
							CHANNELS 3 Zrotation Yrotation Xrotation
							JOINT LeftHand
							{
								OFFSET 3.483560 -0.000000 -0.000000
								CHANNELS 3 Zrotation Yrotation Xrotation
								JOINT LeftFingerBase
								{
									OFFSET 0.000000 0.000000 0.000000
									CHANNELS 3 Zrotation Yrotation Xrotation
									JOINT LeftHandIndex1
									{
										OFFSET 0.715260 -0.000000 -0.000000
										CHANNELS 3 Zrotation Yrotation Xrotation
										End Site
										{
											OFFSET 0.000000 0.000000 0.000000
										}
									}
								}
								JOINT LThumb
								{
									OFFSET 0.000000 0.000000 0.000000
									CHANNELS 3 Zrotation Yrotation Xrotation
									End Site
									{
										OFFSET 0.000000 0.000000 0.000000
									}
								}
							}
						}
					}
				}
				JOINT RightShoulder
				{
					OFFSET 0.000000 0.000000 0.000000
					CHANNELS 3 Zrotation Yrotation Xrotation
					JOINT RightArm
					{
						OFFSET -3.136600 1.374050 -0.404650
						CHANNELS 3 Zrotation Yrotation Xrotation
						JOINT RightForeArm
						{
							OFFSET -5.241900 -0.000000 -0.000000
							CHANNELS 3 Zrotation Yrotation Xrotation
							JOINT RightHand
							{
								OFFSET -3.444170 -0.000000 -0.000000
								CHANNELS 3 Zrotation Yrotation Xrotation
								JOINT RightFingerBase
								{
									OFFSET 0.000000 0.000000 0.000000
									CHANNELS 3 Zrotation Yrotation Xrotation
									JOINT RightHandIndex1
									{
										OFFSET -0.622530 -0.000000 -0.000000
										CHANNELS 3 Zrotation Yrotation Xrotation
										End Site
										{
											OFFSET 0.000000 0.000000 0.000000
										}
									}
								}
								JOINT RThumb
								{
									OFFSET 0.000000 0.000000 0.000000
									CHANNELS 3 Zrotation Yrotation Xrotation
									End Site
									{
										OFFSET 0.000000 0.000000 0.000000
									}
								}
							}
						}
					}
				}
			}
		}
	}
}
MOTION
Frames: 4
Frame Time: 0.008333
-1.974276 17.828909 39.795015 178.537981 -2.128164 -151.126227 8.328784 1.032731 -1.898521 -24.447033 -17.822905 -18.107053 -1.576396 4.445322 9.747739 0.806779 -0.178611 -16.904708 5.274200 -13.686100 -41.994300 -12.666314 -2.891637 -1.491831 31.156033 16.208260 -17.133654 1.620390 -2.830241 5.749102 -0.844865 -1.361983 -18.908441 -2.585200 9.991200 -28.948100 -2.803592 -0.249077 -27.743142 1.631686 -1.447503 -5.441790 -0.400259 -1.555527 13.679761 -9.896768 -0.196356 0.759777 14.478556 -4.396077 12.478199 3.134900 -1.829300 0.680800 15.974260 -2.137869 0.585102 -104.789018 -3.822294 21.881111 12.832075 -15.333959 -2.308889 -1.672642 0.755921 4.543289 19.202864 -10.336530 -4.131900 -7.125000 0.000000 0.000000 -4.337400 18.360500 2.758300 -11.143404 -1.015280 -0.129783 99.026639 -2.226851 5.978186 -14.154688 25.006396 -4.183015 0.224064 4.390952 0.305541 -5.105751 -52.386640 4.452100 7.125000 0.000000 0.000000 82.610600 -73.960600 -65.761500 
-1.975157 17.828799 39.792924 178.527307 -1.969518 -151.190451 8.256793 1.102253 -1.830467 -24.462233 -17.787879 -18.082233 -1.581958 4.443595 9.721754 0.814952 -0.107954 -16.942375 5.421200 -13.843000 -42.612000 -12.730903 -2.823948 -1.522600 31.160025 16.365775 -16.967148 1.621262 -2.820069 5.782583 -0.862763 -1.354990 -19.064344 -2.508800 9.853900 -28.505100 -2.717226 -0.549191 -27.637666 1.736682 -1.826315 -5.481191 -0.649938 -1.937597 13.827330 -6.238841 -3.412798 -3.660905 7.568284 -6.213648 18.245056 -0.300900 -2.300700 3.511000 16.158257 -1.006271 0.418250 -105.015584 -3.514894 21.758158 12.862403 -15.295940 -2.316490 -1.631312 0.761847 4.642696 18.973480 -10.224760 -4.036800 -7.125000 0.000000 0.000000 -4.524600 18.489600 2.865100 -10.891764 -0.021233 -0.183783 98.714152 -1.960104 6.059484 -14.090647 25.011916 -4.135018 0.152780 4.419612 0.315453 -4.457828 -52.582438 3.861800 7.125000 0.000000 0.000000 83.538800 -73.726700 -66.419300 
-1.976257 17.829570 39.791053 178.491237 -1.966247 -151.260514 8.252859 1.110889 -1.824060 -24.539568 -17.769774 -17.976918 -1.584835 4.421712 9.687117 0.822290 -0.041708 -16.952761 5.458900 -13.882600 -42.769400 -12.725622 -2.838568 -1.527612 31.177861 16.291838 -16.869120 1.628101 -2.812965 5.797537 -0.858635 -1.581944 -19.105605 -2.962900 10.634800 -31.057900 -2.589926 -0.635530 -27.659038 1.750084 -1.973239 -5.481257 -0.781588 -1.995822 13.873409 -6.357277 -3.634281 -3.487309 7.501789 -5.861586 18.275078 -0.246400 -1.860300 3.472100 16.146725 -0.997980 0.420054 -105.063862 -3.457564 21.307442 12.870137 -15.315984 -2.316986 -1.634118 0.787986 4.623600 19.003290 -10.473650 -4.145100 -7.125000 0.000000 0.000000 -4.506800 18.196900 2.882900 -10.910825 -0.042205 -0.187678 98.674448 -2.064126 6.422075 -14.122622 25.073063 -4.150989 0.133401 4.407338 0.273787 -4.198346 -52.453254 3.624600 7.125000 0.000000 0.000000 83.109300 -73.619900 -65.864900 
-1.975047 17.829459 39.789953 178.508772 -1.963106 -151.219352 8.253292 1.115126 -1.817452 -24.487593 -17.787407 -18.016195 -1.583608 4.419263 9.670779 0.814997 -0.116886 -16.943485 5.354900 -13.772600 -42.334100 -12.713671 -2.854816 -1.547644 31.233568 15.966842 -17.004363 1.615903 -2.810390 5.788986 -0.853191 -1.323675 -18.929971 -2.752000 10.282400 -29.896100 -2.692149 -0.571617 -27.616825 1.722136 -1.853075 -5.478757 -0.743138 -1.940326 13.822212 -6.221346 -3.340375 -3.443091 7.750167 -6.205613 18.045762 -0.232600 -2.304000 3.378400 16.166932 -1.049232 0.426000 -104.975493 -3.586346 21.419758 12.880922 -15.337304 -2.326100 -1.627920 0.840558 4.521364 18.986150 -10.932770 -4.329500 -7.125000 0.000000 0.000000 -4.534400 17.654700 2.955000 -10.914074 -0.054902 -0.178698 98.860796 -2.172575 6.135185 -14.212976 25.185206 -4.195746 0.123152 4.380798 0.080843 -4.266157 -52.077421 3.668300 7.125000 0.000000 0.000000 81.721900 -73.608300 -64.468500 
